<svg width="64" height="64" viewBox="0 0 64 64" fill="none" xmlns="http://www.w3.org/2000/svg">
<path d="M1.77783 32C1.77783 15.309 15.3088 1.77795 31.9998 1.77795C48.6908 1.77795 62.2218 15.309 62.2218 32C62.2218 48.691 48.6908 62.222 31.9998 62.222C15.3088 62.222 1.77783 48.691 1.77783 32Z" stroke="white" stroke-width="2" stroke-linecap="round" stroke-linejoin="round"/>
<path d="M51.6798 32C51.6798 40.422 49.4278 48.014 45.8258 53.48C42.2188 58.953 37.3158 62.222 31.9998 62.222C26.6838 62.222 21.7808 58.953 18.1738 53.48C14.5718 48.014 12.3198 40.421 12.3198 32C12.3198 23.578 14.5718 15.986 18.1738 10.52C21.7808 5.04695 26.6838 1.77795 31.9998 1.77795C37.3158 1.77795 42.2188 5.04695 45.8258 10.52C49.4278 15.986 51.6798 23.579 51.6798 32Z" stroke="white" stroke-width="2" stroke-linecap="round" stroke-linejoin="round"/>
<path d="M31.9998 40.434C23.5078 40.434 15.8468 39.416 10.3308 37.787C7.56883 36.971 5.38483 36.013 3.90683 34.98C2.40983 33.934 1.77783 32.916 1.77783 32C1.77783 31.084 2.40983 30.066 3.90683 29.02C5.38483 27.987 7.56883 27.029 10.3308 26.213C15.8478 24.584 23.5088 23.566 31.9998 23.566C40.4918 23.566 48.1528 24.584 53.6688 26.213C56.4308 27.029 58.6148 27.987 60.0928 29.02C61.5898 30.066 62.2218 31.084 62.2218 32C62.2218 32.916 61.5898 33.934 60.0928 34.98C58.6148 36.013 56.4308 36.971 53.6688 37.787C48.1518 39.416 40.4908 40.434 31.9998 40.434Z" stroke="white" stroke-width="2" stroke-linecap="round" stroke-linejoin="round"/>
</svg>
