<svg width="64" height="64" viewBox="0 0 64 64" fill="none" xmlns="http://www.w3.org/2000/svg">
<path d="M32.6052 0.666992V16.025H31.6052V0.666992H32.6052ZM47.9832 5.16099L40.4032 18.29L39.2192 17.607L46.7992 4.47799L47.9832 5.16099ZM59.1472 16.877L46.0192 24.456L45.1992 23.036L58.3272 15.458L59.1472 16.877ZM62.8892 32.52H47.5312V30.813H62.8892V32.52ZM58.1892 48.113L45.0612 40.534L46.1542 38.642L59.2812 46.221L58.1892 48.113ZM46.3242 59.129L38.7452 46.001L40.8742 44.772L48.4522 57.9L46.3242 59.129ZM31.1312 62.667V47.31H33.3112V62.667H31.1312ZM15.6642 58.095L23.2432 44.967L25.2702 46.137L17.6902 59.265L15.6642 58.095ZM4.55516 46.323L17.6832 38.743L18.9892 41.007L5.86216 48.587L4.55516 46.323ZM0.88916 30.344H16.2472V33.657H0.88916V30.344ZM5.66716 15.087L18.7952 22.666L17.2152 25.402L4.08716 17.823L5.66716 15.087ZM17.5892 4.12799L25.1692 17.256L22.1952 18.973L14.6162 5.84499L17.5892 4.12799Z" fill="white"/>
</svg>
