<svg width="28" height="28" viewBox="0 0 28 28" fill="none" xmlns="http://www.w3.org/2000/svg">
<circle cx="14" cy="14" r="13.5" stroke="#0A0A0C"/>
<path d="M14.0002 0.5C15.7875 0.500066 17.5222 1.86679 18.8391 4.33594C20.1445 6.78364 20.967 10.1996 20.967 14C20.967 17.8004 20.1445 21.2164 18.8391 23.6641C17.5222 26.1332 15.7875 27.4999 14.0002 27.5C12.2129 27.5 10.4783 26.1333 9.16138 23.6641C7.85598 21.2164 7.03345 17.8004 7.03345 14C7.03345 10.1996 7.85598 6.78365 9.16138 4.33594C10.4783 1.86673 12.2129 0.5 14.0002 0.5Z" stroke="#0A0A0C"/>
<path d="M27.5 14C27.5 14.2453 27.3056 14.6061 26.6328 15.0303C25.985 15.4387 25.0143 15.8246 23.7705 16.1562C21.2899 16.8177 17.8354 17.2334 14 17.2334C10.1646 17.2334 6.71008 16.8177 4.22949 16.1562C2.98572 15.8246 2.01504 15.4387 1.36719 15.0303C0.69438 14.6061 0.500034 14.2453 0.5 14C0.5 13.7547 0.694321 13.3939 1.36719 12.9697C2.01504 12.5613 2.98568 12.1745 4.22949 11.8428C6.71007 11.1813 10.1647 10.7666 14 10.7666C17.8353 10.7666 21.2899 11.1813 23.7705 11.8428C25.0143 12.1745 25.985 12.5613 26.6328 12.9697C27.3057 13.3939 27.5 13.7547 27.5 14Z" stroke="#0A0A0C"/>
</svg>
