<svg width="151" height="121" viewBox="0 0 151 121" fill="none" xmlns="http://www.w3.org/2000/svg">
<path fill-rule="evenodd" clip-rule="evenodd" d="M146.764 60.8952C152.176 40.6961 149.438 19.1896 139.158 1.00155L1.00258 80.7657C11.614 98.7624 28.87 111.887 49.0691 117.299C69.5039 122.775 91.2769 119.908 109.598 109.331C127.92 98.7527 141.288 81.33 146.764 60.8952ZM0.368789 81.1316C0.244963 80.9216 0.122034 80.7109 5.58328e-06 80.4995L139.429 0.000205994C139.551 0.211565 139.672 0.423372 139.792 0.635629C150.169 18.9918 152.933 40.6981 147.471 61.0846C141.945 81.7069 128.454 99.2894 109.964 109.964C91.4747 120.639 69.502 123.532 48.8797 118.006C28.4932 112.544 11.0773 99.2963 0.368789 81.1316Z" fill="white"/>
</svg>
