<svg width="168" height="115" viewBox="0 0 168 115" fill="none" xmlns="http://www.w3.org/2000/svg">
<path fill-rule="evenodd" clip-rule="evenodd" d="M123.029 105.017C143.141 95.3029 158.623 78.0854 166.162 57.0837L5.27612 0.996519C-1.87581 22.1328 -0.452289 45.2441 9.26149 65.3554C19.0886 85.7014 36.5957 101.31 57.9313 108.748C79.267 116.186 102.683 114.844 123.029 105.017ZM4.53805 0.739217C4.62154 0.492548 4.70618 0.246144 4.79199 1.12616e-05L167.16 56.6041C167.074 56.8503 166.988 57.0959 166.9 57.341C159.293 78.5384 143.667 95.9165 123.369 105.72C102.837 115.638 79.2054 116.992 57.674 109.486C36.1427 101.98 18.475 86.228 8.55769 65.6953C-1.24625 45.3974 -2.68209 22.0712 4.53805 0.739217Z" fill="white"/>
</svg>
