<svg width="292" height="176" viewBox="0 0 292 176" fill="none" xmlns="http://www.w3.org/2000/svg">
<path d="M8.18686 119.188L29.3455 8.18692L283.765 56.6833L262.606 167.685L8.18686 119.188Z" stroke="#EBFF57"/>
<circle cx="157.046" cy="32.5287" r="6.5" transform="rotate(10.792 157.046 32.5287)" fill="#0A0A0C" stroke="#EBFF57"/>
<circle cx="283.765" cy="56.6833" r="6.5" transform="rotate(10.792 283.765 56.6833)" fill="#0A0A0C" stroke="#EBFF57"/>
<circle cx="273.279" cy="111.693" r="6.5" transform="rotate(10.792 273.279 111.693)" fill="#0A0A0C" stroke="#EBFF57"/>
<circle cx="262.606" cy="167.685" r="6.5" transform="rotate(10.792 262.606 167.685)" fill="#0A0A0C" stroke="#EBFF57"/>
<circle cx="135.888" cy="143.53" r="6.5" transform="rotate(10.792 135.888 143.53)" fill="#0A0A0C" stroke="#EBFF57"/>
<circle cx="8.18689" cy="119.188" r="6.5" transform="rotate(10.792 8.18689 119.188)" fill="#0A0A0C" stroke="#EBFF57"/>
<circle cx="18.8597" cy="63.1965" r="6.5" transform="rotate(10.792 18.8597 63.1965)" fill="#0A0A0C" stroke="#EBFF57"/>
<circle cx="29.3456" cy="8.18691" r="6.5" transform="rotate(10.792 29.3456 8.18691)" fill="#0A0A0C" stroke="#EBFF57"/>
</svg>
