<svg width="34" height="34" viewBox="0 0 34 34" fill="none" xmlns="http://www.w3.org/2000/svg">
<path d="M21.95 0.5L21.9148 1.0332L21.3308 9.86328L21.5369 10.0781L29.3308 6.72266L29.8464 6.50098L30.0076 7.03906L32.741 16.1777L32.8894 16.6758L32.3855 16.8047L24.2849 18.8857L24.1931 19.1748L29.5789 25.9551L29.8943 26.3516L29.4929 26.6621L22.0632 32.3955L21.6111 32.7441L21.325 32.251L16.9431 24.7051H16.6609L12.1951 32.167L11.908 32.6465L11.4636 32.3086L4.03296 26.6641L3.62671 26.3545L3.94409 25.9551L9.32886 19.1748L9.23608 18.8828L1.13257 16.7139L0.630615 16.5801L0.783936 16.084L3.60229 6.94531L3.76733 6.41016L4.28003 6.63477L12.157 10.0771L12.3621 9.8623L11.7791 1.0332L11.7439 0.5H21.95Z" stroke="#0A0A0C"/>
</svg>
