<svg width="247" height="188" viewBox="0 0 247 188" fill="none" xmlns="http://www.w3.org/2000/svg">
<path d="M42.4678 178.063L8.31812 70.8712L203.169 8.79456L237.318 115.986L42.4678 178.063Z" stroke="#EBFF57"/>
<circle cx="103.123" cy="40.6676" r="6.5" transform="rotate(-17.6711 103.123 40.6676)" fill="#0A0A0C" stroke="#EBFF57"/>
<circle cx="203.169" cy="8.79457" r="6.5" transform="rotate(-17.6711 203.169 8.79457)" fill="#0A0A0C" stroke="#EBFF57"/>
<circle cx="220.168" cy="62.1522" r="6.5" transform="rotate(-17.6711 220.168 62.1522)" fill="#0A0A0C" stroke="#EBFF57"/>
<circle cx="237.47" cy="116.463" r="6.5" transform="rotate(-17.6711 237.47 116.463)" fill="#0A0A0C" stroke="#EBFF57"/>
<circle cx="137.425" cy="148.336" r="6.5" transform="rotate(-17.6711 137.425 148.336)" fill="#0A0A0C" stroke="#EBFF57"/>
<circle cx="43.0961" cy="178.387" r="6.5" transform="rotate(-17.6711 43.0961 178.387)" fill="#0A0A0C" stroke="#EBFF57"/>
<circle cx="25.7936" cy="124.077" r="6.5" transform="rotate(-17.6711 25.7936 124.077)" fill="#0A0A0C" stroke="#EBFF57"/>
<circle cx="8.79457" cy="70.7194" r="6.5" transform="rotate(-17.6711 8.79457 70.7194)" fill="#0A0A0C" stroke="#EBFF57"/>
</svg>
