<svg width="29" height="32" viewBox="0 0 29 32" fill="none" xmlns="http://www.w3.org/2000/svg">
<path fill-rule="evenodd" clip-rule="evenodd" d="M18.8976 10.84L19.8888 11.7922C20.1496 12.0432 20.1547 12.4577 19.9002 12.715L19.1203 13.4998C19.346 13.9021 19.5159 14.3324 19.6254 14.7791L20.6477 14.7666C21.012 14.7622 21.314 15.0525 21.3185 15.4109L21.3344 16.7739C21.3388 17.1329 21.0444 17.4301 20.6795 17.4338L19.5645 17.4469C19.4345 17.8879 19.2452 18.3097 19.0017 18.7013L19.7333 19.4043C19.9941 19.6553 19.9992 20.0705 19.7447 20.3265L18.777 21.3023C18.5219 21.5589 18.0999 21.5639 17.8391 21.3129L17.0408 20.5462C16.6321 20.7682 16.195 20.9353 15.7412 21.0432L15.7533 22.0484C15.7577 22.4074 15.4626 22.7046 15.0984 22.709L13.7131 22.7246C13.3489 22.729 13.0468 22.4393 13.0424 22.0803L13.0291 20.9833C12.5811 20.8547 12.1524 20.6682 11.7542 20.4289L11.0397 21.1494C10.7846 21.406 10.3626 21.411 10.1018 21.16L9.1112 20.2078C8.84976 19.9568 8.84468 19.5423 9.09978 19.285L9.87904 18.5002C9.6544 18.0981 9.48306 17.6673 9.37392 17.2215L8.35162 17.2334C7.98737 17.2378 7.68532 16.9475 7.68088 16.5891L7.66501 15.2261C7.66057 14.8677 7.95501 14.5705 8.31989 14.5662L9.43484 14.5531C9.56565 14.1122 9.7549 13.6903 9.9977 13.2981L9.26604 12.5951C9.00523 12.3441 9.00079 11.9295 9.25525 11.6729L10.223 10.6977C10.4774 10.4411 10.8994 10.4361 11.1602 10.6871L11.9585 11.4538C12.3673 11.2318 12.8044 11.0647 13.2581 10.9568L13.2461 9.95157C13.2416 9.59319 13.5367 9.296 13.9016 9.29163L15.2862 9.2754C15.6511 9.27103 15.9525 9.56073 15.957 9.91973L15.9703 11.0167C16.4187 11.145 16.8478 11.3312 17.2464 11.5705L17.9603 10.8506C18.2154 10.594 18.6374 10.5897 18.8982 10.84H18.8976ZM13.7195 7.22003V5.69972C13.216 5.56861 12.7569 5.30859 12.3888 4.94613C11.8557 4.41918 11.5258 3.6943 11.5258 2.897C11.5258 2.10095 11.8551 1.3767 12.3888 0.851618L12.3913 0.849121C12.925 0.324664 13.6605 0 14.4702 0C15.2799 0 16.016 0.324664 16.5497 0.849121L16.5522 0.851618C17.0853 1.3767 17.4152 2.10095 17.4152 2.897C17.4152 3.6943 17.0853 4.41918 16.5509 4.94426C16.1622 5.32979 15.6705 5.59927 15.1327 5.72158V7.19817C14.7145 7.20005 14.2944 7.20879 13.8762 7.21378C13.8235 7.21441 13.7715 7.21628 13.7195 7.22003ZM15.1714 26.2884C15.7012 26.4158 16.1753 26.6861 16.5497 27.0539L16.5522 27.057C17.0853 27.5821 17.4152 28.3057 17.4152 29.1024C17.4152 29.899 17.0853 30.6227 16.5522 31.1478L16.5497 31.1509C16.016 31.6753 15.2799 32 14.4702 32C13.6605 32 12.925 31.6753 12.3913 31.1509L12.3888 31.1478C11.8551 30.6227 11.5258 29.899 11.5258 29.1024C11.5258 28.3057 11.8551 27.5821 12.3888 27.057L12.3913 27.0539C12.7632 26.6886 13.2334 26.4201 13.7582 26.2909V24.8025C14.2125 24.8018 14.6688 24.7912 15.1225 24.7862L15.1714 24.785V26.2884ZM15.5534 28.0341C15.2786 27.7638 14.8953 27.5958 14.4702 27.5958C14.0456 27.5958 13.6624 27.7638 13.3876 28.0341L13.3844 28.0366C13.1097 28.3076 12.9389 28.6841 12.9389 29.1024C12.9389 29.5207 13.1097 29.8972 13.3844 30.1681L13.3876 30.1706C13.6624 30.441 14.0456 30.6089 14.4702 30.6089C14.8953 30.6089 15.2786 30.441 15.5534 30.1706L15.5559 30.1681C15.8313 29.8972 16.002 29.5207 16.002 29.1024C16.002 28.6841 15.8313 28.3076 15.5559 28.0366L15.5534 28.0341ZM15.5534 1.82936C15.2786 1.55839 14.8953 1.39044 14.4702 1.39044C14.0456 1.39044 13.6624 1.55839 13.3876 1.82936L13.3844 1.83185C13.1097 2.1022 12.9389 2.47931 12.9389 2.897C12.9389 3.31532 13.1097 3.69243 13.3844 3.9634C13.6643 4.23562 14.0475 4.40419 14.4702 4.40419C14.8934 4.40419 15.2767 4.23562 15.5534 3.9634C15.8313 3.69243 16.002 3.31532 16.002 2.897C16.002 2.47931 15.8313 2.1022 15.5559 1.83185L15.5534 1.82936ZM26.0549 19.6459C26.8647 19.6459 27.6008 19.9706 28.1344 20.495L28.137 20.4975C28.67 21.0226 29 21.7469 29 22.5435C29 23.3402 28.67 24.0638 28.137 24.5889L28.1344 24.592C27.6008 25.1165 26.8647 25.4405 26.0549 25.4405C25.2452 25.4405 24.5085 25.1159 23.9748 24.5902C23.4405 24.0676 23.1099 23.3427 23.1099 22.5435C23.1099 22.2513 23.1543 21.9691 23.2362 21.7032L21.8388 20.909C21.9797 20.5681 22.0483 20.2035 22.0438 19.8395C22.0425 19.6934 22.0286 19.5479 22.0038 19.4043L23.9551 20.5125L23.9729 20.495C24.5053 19.9712 25.2427 19.6459 26.0549 19.6459ZM27.1382 21.4753C26.8634 21.2043 26.4801 21.0363 26.0549 21.0363C25.6323 21.0363 25.2484 21.2055 24.9717 21.4778C24.8294 21.6176 24.7166 21.7838 24.6397 21.9667C24.5628 22.1496 24.5234 22.3456 24.5237 22.5435C24.5237 22.96 24.6951 23.3365 24.9717 23.6087C25.2471 23.8822 25.6304 24.0501 26.0549 24.0501C26.4801 24.0501 26.8634 23.8822 27.1382 23.6118L27.1407 23.6087C27.4161 23.3383 27.5868 22.9619 27.5868 22.5435C27.5868 22.1252 27.4161 21.7481 27.1407 21.4778L27.1382 21.4753ZM2.94505 19.6459C3.74081 19.6459 4.46422 19.9581 4.99409 20.4632L6.81849 19.4261C6.80516 19.5416 6.79945 19.6572 6.80072 19.7733C6.80453 20.1573 6.89083 20.5394 7.05646 20.8927L5.74352 21.6388C5.83871 21.9236 5.89011 22.2276 5.89011 22.5435C5.89011 23.3427 5.5595 24.0676 5.02709 24.592C4.49151 25.1159 3.75477 25.4405 2.94505 25.4405C2.13534 25.4405 1.39923 25.1165 0.865558 24.592L0.86302 24.5889C0.329978 24.0638 0 23.3402 0 22.5435C0 21.7462 0.329978 21.022 0.864289 20.4963C1.39543 19.9712 2.13217 19.6459 2.94505 19.6459ZM4.02827 21.4778C3.88611 21.3377 3.71725 21.2266 3.53137 21.1508C3.34549 21.0751 3.14625 21.0362 2.94505 21.0363C2.52179 21.0363 2.13851 21.2055 1.86184 21.4778C1.58389 21.7481 1.41319 22.1252 1.41319 22.5435C1.41319 22.9619 1.58389 23.3383 1.8593 23.6087L1.86184 23.6118C2.13661 23.8822 2.51989 24.0501 2.94505 24.0501C3.36958 24.0501 3.75287 23.8822 4.02827 23.6118C4.30495 23.3365 4.47628 22.96 4.47628 22.5435C4.47628 22.1271 4.30495 21.75 4.02827 21.4778ZM26.0549 6.54323C26.8678 6.54323 27.6046 6.86789 28.1376 7.39235C28.67 7.91618 29 8.64106 29 9.44085C29 10.2375 28.67 10.9618 28.137 11.4869L28.1344 11.4894C27.6008 12.0138 26.8647 12.3385 26.0549 12.3385C25.2427 12.3385 24.5053 12.0132 23.9729 11.4894L23.9355 11.4513L22.1936 12.4421C22.1986 12.3703 22.2005 12.2985 22.1993 12.2273C22.1947 11.8039 22.0907 11.3872 21.8953 11.0099L23.2279 10.2519C23.1518 9.99465 23.1099 9.72244 23.1099 9.44085C23.1099 8.64418 23.4399 7.92055 23.9729 7.39547L23.9761 7.39235C24.5098 6.86789 25.2452 6.54323 26.0549 6.54323ZM27.1388 8.37508C26.9965 8.23504 26.8275 8.12401 26.6415 8.04837C26.4555 7.97273 26.2562 7.93396 26.0549 7.93429C25.6298 7.93429 25.2471 8.10224 24.9717 8.37258L24.9692 8.37508C24.6944 8.64605 24.5237 9.02254 24.5237 9.44085C24.5237 9.85667 24.6951 10.2344 24.9717 10.5066C25.1139 10.6467 25.2827 10.7578 25.4686 10.8335C25.6545 10.9093 25.8538 10.9482 26.0549 10.948C26.4801 10.948 26.8634 10.7801 27.1382 10.5091L27.1407 10.5066C27.4161 10.2363 27.5868 9.85917 27.5868 9.44085C27.5868 9.02441 27.4148 8.64667 27.1388 8.37508ZM2.94505 6.54323C3.75477 6.54323 4.49024 6.86789 5.02392 7.39235L5.02709 7.39547C5.56013 7.92055 5.89011 8.64418 5.89011 9.44085C5.89011 9.67561 5.86092 9.90412 5.80761 10.1226L7.21764 10.9637C6.99966 11.4228 6.9151 11.9324 6.97333 12.4359L5.15718 11.3526C5.1153 11.3994 5.07151 11.4457 5.02709 11.4894C4.49468 12.0132 3.75731 12.3385 2.94505 12.3385C2.13217 12.3385 1.39543 12.0132 0.86302 11.4894C0.329978 10.9624 0 10.2382 0 9.44085C0 8.64418 0.329978 7.92055 0.86302 7.39547L0.865558 7.39235C1.39923 6.86789 2.13534 6.54323 2.94505 6.54323ZM4.02827 8.37258C3.75287 8.10224 3.37022 7.93429 2.94505 7.93429C2.51989 7.93429 2.13661 8.10224 1.86184 8.37258L1.8593 8.37508C1.58389 8.64605 1.41319 9.02254 1.41319 9.44085C1.41319 9.85917 1.58389 10.2363 1.8593 10.5066C2.13851 10.7788 2.52179 10.948 2.94505 10.948C3.36768 10.948 3.7516 10.7788 4.02827 10.5066C4.17055 10.3667 4.28336 10.2006 4.36024 10.0177C4.43712 9.83478 4.47655 9.63876 4.47628 9.44085C4.47628 9.02254 4.30558 8.64605 4.03081 8.37508L4.02827 8.37258ZM14.467 13.3206C15.9709 13.3031 17.2052 14.4888 17.223 15.9678C17.2414 17.4476 16.0357 18.6619 14.5317 18.6794C13.0284 18.6975 11.7942 17.5112 11.7764 16.0322C11.7586 14.5524 12.9637 13.3381 14.467 13.3206Z" fill="white"/>
</svg>
