<svg width="32" height="26" viewBox="0 0 32 26" fill="none" xmlns="http://www.w3.org/2000/svg">
<path d="M23.5703 16.8802C23.4688 16.8099 23.3542 16.7786 23.237 16.8021C23.1198 16.8255 23.0208 16.888 22.9505 16.987L22.5547 17.5443C22.4141 17.4818 22.2682 17.4349 22.112 17.3958C21.9557 17.3568 21.8099 17.3255 21.6536 17.3021L21.5286 16.5729C21.5052 16.4479 21.4427 16.3568 21.3516 16.2865C21.25 16.2161 21.1432 16.1927 21.0182 16.2161L20.1042 16.3802C19.987 16.4036 19.8958 16.4583 19.8177 16.5599C19.7474 16.6615 19.7161 16.7682 19.7396 16.8932L19.8568 17.5599C19.7083 17.6224 19.5703 17.6927 19.4375 17.776C19.3047 17.8542 19.1745 17.9479 19.0573 18.0391L18.4375 17.612C18.3359 17.5417 18.2292 17.5104 18.112 17.5339C17.9948 17.5573 17.8958 17.6198 17.8255 17.7214L17.2969 18.474C17.2266 18.5755 17.1953 18.6901 17.2188 18.8073C17.2422 18.9323 17.3047 19.0234 17.4062 19.0938L17.9635 19.4896C17.901 19.6302 17.8542 19.776 17.8151 19.9323C17.776 20.0885 17.7448 20.2344 17.7214 20.3906L16.9922 20.5156C16.8672 20.5391 16.776 20.6016 16.7057 20.6927C16.6354 20.7943 16.612 20.901 16.6354 21.026L16.7995 21.9401C16.8229 22.0573 16.8776 22.1484 16.9766 22.2266C17.0781 22.2969 17.1849 22.3281 17.3099 22.3047L17.9766 22.1875C18.0391 22.3359 18.1094 22.474 18.1927 22.6068C18.2708 22.7396 18.3646 22.8698 18.4557 22.9948L18.0286 23.6068C17.9583 23.7083 17.9271 23.8151 17.9505 23.9323C17.974 24.0495 18.0365 24.1484 18.1354 24.2188L18.8958 24.7526C18.9974 24.8229 19.112 24.8464 19.2292 24.8229C19.3464 24.7995 19.4453 24.7448 19.5234 24.6458L19.9193 24.0807C20.0599 24.1432 20.2057 24.1901 20.362 24.2292C20.5182 24.2682 20.6641 24.2995 20.8203 24.3229L20.9453 25.0521C20.9688 25.1771 21.0312 25.2682 21.1224 25.3385C21.224 25.4089 21.3307 25.4323 21.4557 25.4089L22.3698 25.2448C22.487 25.2214 22.5781 25.1667 22.6562 25.0677C22.7266 24.9661 22.7578 24.8594 22.7344 24.7344L22.6172 24.0677C22.7656 24.0052 22.9036 23.9349 23.0365 23.8516C23.1693 23.7734 23.2995 23.6823 23.4245 23.5885L24.0365 24.0156C24.138 24.0859 24.2448 24.1172 24.3698 24.0938C24.4948 24.0703 24.5859 24.0078 24.6562 23.9089L25.1901 23.1484C25.2604 23.0469 25.2839 22.9323 25.2604 22.8151C25.237 22.6979 25.1823 22.599 25.0807 22.5208L24.5156 22.1328C24.5781 21.9922 24.625 21.8464 24.6641 21.6901C24.7031 21.5339 24.7344 21.388 24.7578 21.2318L25.487 21.1068C25.612 21.0833 25.7031 21.0208 25.7734 20.9271C25.8438 20.8255 25.8672 20.7188 25.8437 20.5938L25.6797 19.6797C25.6562 19.5625 25.6016 19.4714 25.5026 19.3932C25.401 19.3229 25.2943 19.2917 25.1693 19.3151L24.5026 19.4323C24.4401 19.2917 24.3698 19.1536 24.2865 19.013C24.2083 18.8724 24.1146 18.75 24.0234 18.6328L24.4505 18.013C24.5208 17.9115 24.5521 17.8047 24.5286 17.6875C24.5052 17.5703 24.4427 17.4714 24.3438 17.401L23.5911 16.8724L23.5703 16.8802ZM30.4479 14.3568L28.75 14.3724C28.5026 14.375 28.3021 14.1745 28.2995 13.9271C28.2969 13.6797 28.4974 13.4792 28.7422 13.4766L31.5365 13.4479H31.5391H31.5495H31.5521H31.5625H31.5651H31.5755H31.5781H31.5885H31.5911H31.6016H31.6042L31.6146 13.4505H31.6172L31.6276 13.4531H31.6302L31.6406 13.4557H31.6432L31.651 13.4583H31.6536L31.6615 13.4609H31.6641L31.6719 13.4635H31.6745L31.6823 13.4661H31.6849L31.6927 13.4688H31.6953L31.7031 13.4714H31.7057L31.7135 13.474H31.7161L31.724 13.4766H31.7266L31.7344 13.4792H31.737L31.7448 13.4818H31.7474L31.7552 13.487H31.7578L31.7656 13.4922H31.7682L31.776 13.4974H31.7786L31.7865 13.5026H31.7891L31.7969 13.5078H31.7995L31.8073 13.513H31.8099L31.8177 13.5182H31.8203L31.8281 13.5234H31.8307L31.8385 13.5286H31.8411L31.849 13.5339H31.8516L31.8594 13.5391H31.862L31.8698 13.5443H31.8724L31.8802 13.5495L31.8828 13.5521L31.888 13.5573L31.8906 13.5599L31.8958 13.5651L31.901 13.5703V13.5729L31.9062 13.5807V13.5833L31.9115 13.5911V13.5938L31.9167 13.6016V13.6042L31.9219 13.612V13.6146L31.9271 13.6224V13.625L31.9323 13.6328V13.6354L31.9375 13.6432V13.6458L31.9427 13.6536V13.6563L31.9479 13.6641V13.6667L31.9531 13.6745V13.6771L31.9583 13.6849V13.6875L31.9635 13.6953V13.6979L31.9688 13.7057V13.7083L31.9714 13.7161V13.7188L31.974 13.7266V13.7292L31.9766 13.737L31.9792 13.7448V13.7474V13.75L31.9818 13.7578V13.7604L31.9844 13.7682V13.7708L31.987 13.7786V13.7813L31.9896 13.7891V13.7917L31.9922 13.7995V13.8021L31.9948 13.8125V13.8151L31.9974 13.8255V13.8281L32 13.8385V13.8411L32.0026 13.8516V13.862V13.8646V13.875V13.8776V13.888V13.8906V13.901V13.9036L32.0156 16.7917C32.0156 17.0391 31.8177 17.2396 31.5703 17.2422C31.3229 17.2422 31.1224 17.0443 31.1224 16.7969L31.1146 14.9844L29.474 16.625C29.2995 16.7995 29.013 16.7995 28.8385 16.625C28.6641 16.4505 28.6641 16.1641 28.8385 15.9896L30.4479 14.3568ZM15.0104 0.90625L13.3125 0.921875C13.0651 0.924479 12.8646 0.723958 12.862 0.479167C12.8594 0.231771 13.0599 0.03125 13.3073 0.0286458L16.1016 0H16.1042H16.1146H16.1172H16.1276H16.1302H16.1406H16.1432H16.1536H16.1562H16.1667H16.1693L16.1797 0.00260417H16.1823L16.1927 0.00520833H16.1953L16.2057 0.0078125H16.2083L16.2161 0.0104167H16.2188L16.2266 0.0130208H16.2292L16.237 0.015625H16.2396L16.2474 0.0182292H16.25L16.2578 0.0208333H16.2604L16.2682 0.0234375H16.2708L16.2786 0.0260417H16.2812L16.2891 0.0286458H16.2917L16.2995 0.03125H16.3021L16.3099 0.0338542H16.3125L16.3203 0.0390625H16.3229L16.3307 0.0442708H16.3333L16.3411 0.0494792H16.3437L16.3516 0.0546875H16.3542L16.362 0.0598958H16.3646L16.3724 0.0651042H16.375L16.3828 0.0703125H16.3854L16.3932 0.0755208H16.3958L16.4036 0.0807292H16.4062L16.4141 0.0859375H16.4167L16.4245 0.0911458H16.4271L16.4349 0.0963542H16.4375L16.4453 0.101563L16.4479 0.104167L16.4531 0.109375L16.4557 0.111979L16.4609 0.117188V0.119792L16.4661 0.125V0.127604L16.4714 0.135417V0.138021L16.4766 0.145833V0.148438L16.4818 0.15625V0.158854L16.487 0.166667V0.169271L16.4922 0.177083V0.179688L16.4974 0.1875V0.190104L16.5026 0.197917V0.200521L16.5078 0.208333V0.210938L16.513 0.21875V0.221354L16.5182 0.229167V0.231771L16.5234 0.239583V0.242188L16.5286 0.25V0.252604L16.5104 0.260417V0.263021L16.513 0.270833V0.273438L16.5156 0.28125V0.283854L16.5182 0.291667L16.5208 0.299479V0.302083V0.304688L16.5234 0.3125V0.315104L16.526 0.322917V0.325521L16.5286 0.333333V0.335938L16.5312 0.34375V0.346354L16.5339 0.356771V0.359375L16.5365 0.369792V0.372396L16.5391 0.382813V0.385417L16.5417 0.395833V0.398438V0.408854V0.419271V0.421875V0.432292V0.434896V0.445313V0.447917V0.458333V0.460938L16.5547 3.34896C16.5547 3.59635 16.3568 3.79688 16.1094 3.79688C15.862 3.79688 15.6615 3.59896 15.6615 3.35156L15.6536 1.53906L14.013 3.17969C13.8385 3.35417 13.5521 3.35417 13.3776 3.17969C13.2031 3.00521 13.2031 2.71875 13.3776 2.54427L15.0104 0.90625ZM25.388 4.625L22.2292 4.65625C21.8594 4.65885 21.5573 4.36198 21.5547 3.99219C21.5521 3.6224 21.849 3.32031 22.2188 3.31771L27.0182 3.27083H27.0208H27.0365H27.0391H27.0547H27.0573H27.0729H27.0755H27.0911H27.0938L27.1068 3.27344H27.1094L27.1224 3.27604H27.125L27.138 3.27865H27.1406L27.1536 3.28125H27.1562L27.1693 3.28385H27.1719L27.1849 3.28646H27.1875L27.2005 3.28906H27.2031L27.2161 3.29167H27.2187L27.2318 3.29688H27.2344L27.2474 3.30208H27.25L27.263 3.30729H27.2656L27.2786 3.3125H27.2812L27.2943 3.31771H27.2969L27.3099 3.32292H27.3125L27.3255 3.32813H27.3281L27.3411 3.33333L27.3437 3.33594L27.3568 3.34115L27.3594 3.34375L27.3698 3.35156L27.3724 3.35417L27.3828 3.36198L27.3854 3.36458L27.3958 3.3724L27.3984 3.375L27.4089 3.38281L27.4115 3.38542L27.4219 3.39323L27.4245 3.39583L27.4349 3.40365L27.4375 3.40625L27.4479 3.41406L27.4505 3.41667L27.4609 3.42448L27.4635 3.42708L27.474 3.4349L27.4766 3.4375L27.487 3.44531L27.4896 3.44792L27.5 3.45833L27.5026 3.46094L27.513 3.47135L27.5156 3.47396L27.526 3.48438L27.5286 3.48698L27.5365 3.4974L27.5391 3.5L27.5469 3.51042L27.5495 3.51302L27.5573 3.52344L27.5599 3.52604L27.5677 3.53646L27.5703 3.53906L27.5781 3.54948L27.5807 3.55208L27.5885 3.5625L27.5911 3.5651L27.599 3.57552L27.6016 3.57813L27.6094 3.58854L27.612 3.59115L27.6198 3.60156V3.60417L27.6276 3.61719V3.61979L27.6354 3.63281L27.6406 3.64583V3.64844L27.6458 3.66146V3.66406L27.651 3.67708V3.67969L27.6562 3.69271V3.69531L27.6615 3.70833V3.71094L27.6667 3.72396V3.72656L27.6719 3.73958V3.74219L27.6771 3.75521V3.75781L27.6797 3.77083V3.77344L27.6823 3.78646V3.78906L27.6849 3.80208V3.80469L27.6875 3.82031L27.6901 3.83333V3.83594L27.6927 3.84896V3.85156L27.6953 3.86458V3.86719L27.6979 3.88281V3.88542V3.90104V3.90365V3.92188V3.9375V3.9401L27.7188 8.80729C27.7214 9.17708 27.4219 9.47656 27.0521 9.47917C26.6823 9.48177 26.3828 9.18229 26.3802 8.8125L26.3672 5.55469L21.7214 10.1927C21.4583 10.4557 21.0339 10.4557 20.7708 10.1927C20.5078 9.92969 20.5078 9.50521 20.7708 9.24219L25.388 4.625ZM20.9089 19.0365C21.1484 18.9974 21.3906 18.9974 21.6302 19.0521C21.862 19.1068 22.0729 19.2005 22.2656 19.3307C22.4505 19.4635 22.6146 19.6328 22.7474 19.8359C22.8802 20.0365 22.9635 20.263 23.0026 20.5026C23.0417 20.7422 23.0417 20.9844 22.987 21.224C22.9323 21.4557 22.8385 21.6667 22.7083 21.8594C22.5755 22.0443 22.4062 22.2083 22.2031 22.3411C22.0026 22.474 21.776 22.5573 21.5365 22.5964C21.2969 22.6354 21.0547 22.6354 20.8151 22.5807C20.5833 22.526 20.3724 22.4323 20.1797 22.3021C19.9948 22.1693 19.8307 22 19.6979 21.7969C19.5651 21.5964 19.4818 21.3698 19.4427 21.1302C19.4036 20.8906 19.4036 20.6484 19.4583 20.4089C19.513 20.1771 19.6068 19.9661 19.737 19.7734C19.8698 19.5885 20.0391 19.4245 20.2422 19.2917C20.4453 19.1615 20.6693 19.0755 20.9089 19.0365ZM13.8672 8.16406C13.8281 8.125 13.7969 8.10156 13.7578 8.08594C13.7266 8.07031 13.6875 8.0625 13.6406 8.0625C13.5938 8.0625 13.5547 8.07031 13.5234 8.08594C13.4922 8.10156 13.4531 8.125 13.4219 8.15625L13.4141 8.16406L12.5365 9.04167C12.3646 9.21354 12.0938 9.23438 11.901 9.09635C11.7995 9.03385 11.7005 8.97136 11.5833 8.91146C11.4583 8.84896 11.3437 8.78646 11.2344 8.73177C11.1172 8.67708 10.9948 8.6224 10.8698 8.57552C10.7604 8.53646 10.638 8.48958 10.4896 8.44271C10.2812 8.3724 10.1484 8.17969 10.1484 7.96875V6.6276C10.1484 6.58073 10.1406 6.53385 10.125 6.5026C10.1094 6.47135 10.0859 6.43229 10.0547 6.40885C10.0234 6.3776 9.99219 6.35417 9.96094 6.33854C9.92969 6.32292 9.88281 6.3151 9.83594 6.3151H8.15104C8.10417 6.3151 8.0651 6.32292 8.03385 6.33073C8.0026 6.34635 7.96354 6.36979 7.92448 6.40885C7.89323 6.4401 7.86979 6.47135 7.86198 6.5026C7.84635 6.53385 7.83854 6.58073 7.83854 6.6276V7.86198C7.83854 8.10938 7.65885 8.3125 7.42708 8.35938C7.29427 8.39062 7.17188 8.42188 7.0625 8.45312C6.9375 8.49219 6.82292 8.53125 6.69792 8.57812C6.58073 8.625 6.45833 8.67188 6.34115 8.73438C6.21615 8.78906 6.10938 8.85156 6 8.90625C5.79948 9.01563 5.5651 8.97656 5.41146 8.82031L4.44271 7.85938C4.4349 7.85156 4.4349 7.85156 4.4349 7.84375C4.40365 7.8125 4.3724 7.78906 4.34115 7.77344C4.3099 7.75781 4.27865 7.75781 4.23177 7.75781C4.1849 7.75781 4.14583 7.76563 4.11458 7.78125C4.07552 7.79688 4.04427 7.82031 4.00521 7.85938L2.82552 9.04688C2.78646 9.08594 2.76302 9.11719 2.7474 9.15625C2.73177 9.1875 2.72396 9.22656 2.72396 9.27344C2.72396 9.32031 2.73177 9.35938 2.7474 9.39063C2.76302 9.42188 2.78646 9.46094 2.81771 9.49219V9.5L3.69531 10.3776C3.86458 10.5469 3.88802 10.8203 3.75 11.013C3.6875 11.1146 3.625 11.2135 3.5651 11.3307C3.5026 11.4557 3.4401 11.5703 3.38542 11.6797C3.33073 11.7969 3.27604 11.9193 3.22917 12.0443C3.1901 12.1536 3.14323 12.276 3.09635 12.4245C3.02604 12.6328 2.83333 12.7656 2.6224 12.7656H1.28646C1.23958 12.7656 1.19271 12.7734 1.16146 12.7891C1.13021 12.8047 1.09896 12.8281 1.06771 12.8516C1.03646 12.8828 1.01302 12.9141 1.00521 12.9453C0.989583 12.9766 0.981771 13.0234 0.981771 13.0703V14.7604C0.981771 14.8073 0.989583 14.8464 0.997396 14.8776C1.01302 14.9089 1.03646 14.9479 1.07552 14.987C1.10677 15.0182 1.13802 15.0417 1.16927 15.0495C1.20052 15.0651 1.2474 15.0729 1.29427 15.0729H2.52865C2.77604 15.0729 2.97917 15.25 3.02604 15.4844C3.05729 15.6172 3.08854 15.7396 3.11979 15.8411C3.15885 15.9661 3.19792 16.0885 3.24479 16.2135C3.29167 16.3307 3.33854 16.4531 3.40104 16.5781C3.46354 16.7109 3.51823 16.8255 3.57292 16.9349C3.67448 17.1354 3.63542 17.3698 3.47917 17.5156L2.51823 18.4688L2.50521 18.4635C2.47396 18.4948 2.45052 18.526 2.4349 18.5573C2.41927 18.5885 2.41927 18.6198 2.41927 18.6667C2.41927 18.7135 2.42708 18.7526 2.44271 18.7839C2.45833 18.8229 2.48177 18.862 2.52083 18.8932L3.69271 20.0807C3.72396 20.112 3.76302 20.1354 3.80208 20.151C3.84115 20.1667 3.88021 20.1745 3.92708 20.1745C3.97396 20.1745 4.02083 20.1667 4.0599 20.151C4.09115 20.1354 4.13021 20.112 4.16146 20.0885L5.03125 19.2031C5.20312 19.0234 5.47396 19.0104 5.66667 19.1406C5.76823 19.2031 5.86719 19.2656 5.98437 19.3255C6.10937 19.388 6.22396 19.4505 6.33333 19.5026C6.45052 19.5573 6.57292 19.612 6.69792 19.6589C6.80729 19.6979 6.92969 19.7448 7.07812 19.7917C7.28646 19.862 7.41927 20.0547 7.41927 20.2656V21.6068C7.41927 21.6536 7.42708 21.7005 7.44271 21.7318C7.45833 21.763 7.48177 21.8021 7.50521 21.8255C7.56771 21.888 7.63802 21.9115 7.72917 21.9115H9.41927C9.46614 21.9115 9.50521 21.9036 9.53646 21.8958C9.56771 21.8802 9.60677 21.8568 9.64583 21.8177C9.67708 21.7865 9.70052 21.7552 9.70833 21.724C9.72396 21.6927 9.73177 21.6458 9.73177 21.599V20.3646C9.73177 20.1172 9.91146 19.9141 10.1432 19.8672C10.276 19.8359 10.3984 19.8047 10.5078 19.7734C10.6328 19.7344 10.7474 19.6953 10.8724 19.6484C10.9896 19.6016 11.112 19.5547 11.237 19.4922C11.3698 19.4297 11.4844 19.375 11.5938 19.3203C11.7943 19.2188 12.0286 19.2578 12.1745 19.4141L13.1276 20.375L13.1354 20.3828C13.1667 20.4141 13.1979 20.4375 13.2292 20.4531C13.2604 20.4688 13.2995 20.4688 13.3464 20.4688C13.3932 20.4688 13.4323 20.4609 13.4635 20.4453C13.4948 20.4297 13.526 20.4063 13.5573 20.375C13.5651 20.3672 13.5729 20.3594 13.5807 20.3594L14.7604 19.1953C14.7917 19.1641 14.8151 19.125 14.8307 19.0859C14.8464 19.0469 14.8542 19.0078 14.8542 18.9609C14.8542 18.9141 14.8464 18.8672 14.8307 18.8281C14.8151 18.7969 14.7917 18.7578 14.7682 18.7266L13.8828 17.8568C13.7031 17.6875 13.6901 17.4141 13.8203 17.2214C13.8828 17.1198 13.9453 17.0208 14.0052 16.9036C14.0677 16.7786 14.1302 16.6641 14.1849 16.5547C14.2396 16.4375 14.2943 16.3151 14.3411 16.1901C14.3802 16.0807 14.4271 15.9583 14.474 15.8099C14.5443 15.6016 14.737 15.4688 14.9479 15.4688H16.2891C16.3359 15.4688 16.3828 15.4609 16.4141 15.4453C16.4453 15.4297 16.4844 15.4063 16.5078 15.3828C16.5703 15.3203 16.5938 15.25 16.5938 15.1589V13.4688C16.5938 13.4219 16.5859 13.3828 16.5781 13.3516C16.5625 13.3203 16.5391 13.2813 16.5 13.2422C16.4688 13.2109 16.4375 13.1875 16.4062 13.1797C16.375 13.1641 16.3281 13.1563 16.2812 13.1563H15.0469C14.7995 13.1563 14.5885 12.9714 14.5495 12.737C14.5182 12.6276 14.487 12.513 14.4557 12.3958C14.4167 12.2786 14.3776 12.1562 14.3229 12.0234C14.3229 12.0156 14.3151 12.0078 14.3151 12C14.2682 11.875 14.2214 11.7682 14.1745 11.6589C14.1198 11.5417 14.0651 11.4271 14.0026 11.3177C13.8932 11.1172 13.9323 10.8828 14.0885 10.7292L15.0495 9.76042C15.0495 9.7526 15.0573 9.75261 15.0651 9.75261C15.0964 9.72136 15.1198 9.6901 15.1354 9.65885C15.151 9.6276 15.151 9.59635 15.151 9.54948C15.151 9.5026 15.1432 9.46354 15.1276 9.43229C15.112 9.39323 15.0885 9.36198 15.0495 9.32292L13.862 8.14323L13.8672 8.16406ZM14.1458 7.16146C14.3099 7.23177 14.4479 7.32552 14.5729 7.44792L15.7604 8.62761H15.7682C15.8932 8.75261 15.9844 8.89063 16.0547 9.04688C16.125 9.21094 16.1562 9.3724 16.1562 9.55208C16.1562 9.72917 16.1172 9.90104 16.0547 10.0573C15.9844 10.2135 15.8906 10.3516 15.7604 10.4688L15.0625 11.1745C15.0703 11.1979 15.0859 11.2214 15.0937 11.2448C15.1562 11.3776 15.2109 11.5156 15.263 11.6484C15.263 11.6563 15.2708 11.6641 15.2708 11.6719C15.3255 11.8047 15.3724 11.9505 15.4193 12.1068L15.4349 12.1615H16.2891C16.4661 12.1615 16.638 12.1927 16.7943 12.263C16.9505 12.3255 17.0885 12.4271 17.2135 12.5495L17.2214 12.5573C17.3464 12.6823 17.4375 12.8203 17.5 12.9766C17.5625 13.1328 17.6016 13.3021 17.6016 13.474V15.1641C17.6016 15.5286 17.4766 15.8385 17.2214 16.0938C17.0964 16.2188 16.9505 16.3177 16.7943 16.3802C16.638 16.4427 16.4688 16.474 16.2891 16.474H15.2969C15.2891 16.4974 15.2734 16.5286 15.2656 16.5521C15.2109 16.6927 15.1484 16.8307 15.0885 16.9714C15.0182 17.1198 14.9557 17.2578 14.888 17.3828L14.8646 17.4297L15.4688 18.026L15.4922 18.0495C15.6172 18.1745 15.7005 18.3203 15.763 18.4766C15.8255 18.6328 15.8568 18.7943 15.8568 18.974C15.8568 19.1458 15.8255 19.3073 15.763 19.4635C15.7005 19.6198 15.6146 19.7578 15.4922 19.8906L15.4766 19.9063L14.2891 21.0859C14.1641 21.2188 14.026 21.3099 13.8698 21.3802C13.7135 21.4505 13.5443 21.4818 13.3568 21.4818C13.1797 21.4818 13.0078 21.4427 12.8437 21.3802C12.6797 21.3099 12.5417 21.2083 12.4245 21.0859L11.7344 20.388C11.7109 20.4036 11.6875 20.4115 11.6562 20.4193C11.5234 20.474 11.3854 20.5365 11.237 20.5911C11.0964 20.6458 10.9505 20.6927 10.8021 20.7396C10.7786 20.7474 10.763 20.7552 10.7396 20.7552V21.6016C10.7396 21.7786 10.7083 21.9505 10.638 22.1068C10.5755 22.263 10.474 22.401 10.3516 22.526L10.3438 22.5339C10.2188 22.6589 10.0807 22.75 9.92448 22.8125C9.76823 22.875 9.59896 22.9141 9.42708 22.9141H7.73698C7.3724 22.9141 7.0625 22.7891 6.80729 22.5339C6.68229 22.4089 6.58333 22.263 6.52083 22.1068C6.45833 21.9505 6.42708 21.7812 6.42708 21.6016V20.6094C6.40365 20.6016 6.3724 20.5859 6.34896 20.5781C6.20833 20.5234 6.07031 20.4609 5.92969 20.3984C5.78125 20.3281 5.64323 20.2656 5.51823 20.1979L5.47135 20.1745L4.875 20.7786L4.85156 20.8021C4.72656 20.9271 4.58073 21.0104 4.42448 21.0729C4.26823 21.1354 4.10677 21.1667 3.92708 21.1667C3.75521 21.1667 3.59375 21.1354 3.4375 21.0729C3.28125 21.0104 3.14323 20.9245 3.01042 20.8021L2.99479 20.7865L1.80729 19.5833C1.68229 19.4583 1.59115 19.3203 1.52083 19.1641C1.45052 19 1.41927 18.8385 1.41927 18.6589C1.41927 18.4792 1.45833 18.3099 1.52083 18.1536C1.59115 17.9974 1.69271 17.8594 1.8151 17.7344L2.51302 17.0443C2.4974 17.0208 2.48958 16.9974 2.48177 16.9661C2.42708 16.8333 2.36458 16.6953 2.3099 16.5469C2.25521 16.3984 2.20052 16.2604 2.16146 16.112L2.14583 16.0495H1.3099C1.13021 16.0495 0.960937 16.0182 0.804687 15.9479C0.648437 15.8854 0.510417 15.7839 0.385417 15.6615L0.377604 15.6536C0.252604 15.5286 0.161458 15.3906 0.0989583 15.2344C0.0390625 15.0729 0 14.9036 0 14.7318V13.0417C0 12.8646 0.03125 12.7005 0.09375 12.5365C0.15625 12.3802 0.257812 12.2422 0.380208 12.1094C0.505208 11.9844 0.651042 11.8854 0.807292 11.8229C0.963542 11.7604 1.13281 11.7292 1.3125 11.7292H2.30469C2.3125 11.7057 2.32812 11.6745 2.33594 11.651C2.39062 11.5104 2.45312 11.3724 2.51302 11.2318C2.58333 11.0833 2.64583 10.9453 2.71354 10.8203L2.73698 10.7734L2.14062 10.1693C2.01562 10.0443 1.91667 9.90625 1.85417 9.74219C1.78385 9.57813 1.7526 9.40886 1.7526 9.23698C1.7526 9.0599 1.78385 8.89583 1.85417 8.73177C1.92448 8.56771 2.01823 8.42969 2.14062 8.30469L3.32031 7.11719V7.10938C3.44531 6.98438 3.58333 6.89323 3.73958 6.82292C3.90365 6.7526 4.0651 6.72135 4.24479 6.72135C4.42448 6.72135 4.59375 6.76042 4.75 6.82292C4.90625 6.89323 5.04427 6.98698 5.16146 7.11719L5.86719 7.8151C5.89062 7.80729 5.91406 7.79167 5.92969 7.78385C6.0625 7.72135 6.20052 7.66667 6.34896 7.60677C6.48958 7.55208 6.63542 7.50521 6.78385 7.45833C6.80729 7.45052 6.82292 7.44271 6.84635 7.44271V6.59635C6.84635 6.41667 6.8776 6.2474 6.94792 6.09115C7.01042 5.9349 7.11198 5.79688 7.23438 5.67188L7.24219 5.66406C7.36719 5.53906 7.50521 5.44792 7.66146 5.38542C7.81771 5.32292 7.98698 5.28385 8.15885 5.28385H9.84896C10.026 5.28385 10.1901 5.3151 10.3542 5.3776C10.5182 5.4401 10.6562 5.54167 10.7812 5.66406C10.9062 5.78906 11.0052 5.9349 11.0677 6.09115C11.1302 6.2474 11.1615 6.41667 11.1615 6.59635V7.58854C11.1849 7.59635 11.2161 7.61198 11.2396 7.61979C11.3802 7.67448 11.5182 7.73698 11.6589 7.79948C11.8073 7.86979 11.9453 7.93229 12.0703 8L12.1172 8.02344L12.7214 7.42708C12.8464 7.30208 12.9844 7.20313 13.1484 7.14063C13.3125 7.07031 13.4818 7.03906 13.6536 7.03906C13.8333 7.03906 13.9948 7.07031 14.1589 7.14063V7.16146H14.1458ZM8.78646 10.3047C9.04167 10.3047 9.29948 10.3281 9.54688 10.3828C9.78646 10.4297 10.0286 10.5078 10.2682 10.6068C10.4922 10.7083 10.7109 10.8229 10.9115 10.9557C11.112 11.0885 11.2995 11.2422 11.4688 11.4141C11.6406 11.5859 11.7943 11.7708 11.9271 11.9792C12.0677 12.1797 12.1823 12.3984 12.276 12.6224C12.2839 12.638 12.2839 12.6536 12.2917 12.6615C12.3854 12.8854 12.4557 13.1198 12.5 13.3438C12.5469 13.5911 12.5781 13.849 12.5781 14.1042C12.5781 14.3594 12.5547 14.6172 12.5 14.8646C12.4531 15.1042 12.375 15.3464 12.276 15.5859C12.1745 15.8099 12.0599 16.0286 11.9271 16.2292C11.7865 16.4297 11.6406 16.6172 11.4688 16.7943C11.2969 16.9661 11.112 17.1198 10.9036 17.2526C10.7031 17.3932 10.4844 17.5078 10.2604 17.6016C10.2448 17.6094 10.2292 17.6094 10.2214 17.6172C9.9974 17.7109 9.76302 17.7812 9.53906 17.8255C9.29167 17.8724 9.03385 17.9036 8.77865 17.9036C8.52344 17.9036 8.26562 17.8802 8.01823 17.8255C7.77865 17.7786 7.53646 17.7005 7.29688 17.6016C7.07292 17.5 6.85417 17.3854 6.65365 17.2526C6.45312 17.1198 6.26562 16.9661 6.09635 16.7943C5.92448 16.6224 5.77083 16.4375 5.63802 16.2292C5.4974 16.0286 5.38281 15.8099 5.28906 15.5859C5.28125 15.5703 5.28125 15.5547 5.27344 15.5469C5.17969 15.3229 5.10938 15.0885 5.0651 14.8646C5.01823 14.6172 4.98698 14.3594 4.98698 14.1042C4.98698 13.849 5.01042 13.5911 5.0651 13.3438C5.11198 13.1042 5.1901 12.862 5.28906 12.6224C5.39062 12.3984 5.50521 12.1797 5.63802 11.9792C5.77083 11.7786 5.92448 11.5911 6.09635 11.4141C6.26562 11.2448 6.45312 11.0885 6.65365 10.9557C6.85417 10.8151 7.07292 10.7005 7.29688 10.6068C7.3125 10.599 7.32812 10.599 7.33594 10.5911C7.5599 10.4974 7.79427 10.4271 8.01823 10.3828C8.26562 10.3359 8.52344 10.3047 8.77865 10.3047H8.78646ZM9.35417 11.3594C9.17708 11.3203 8.98177 11.3047 8.78906 11.3047C8.59635 11.3047 8.40885 11.3203 8.22396 11.3594C8.04688 11.3984 7.88281 11.4453 7.72656 11.5078C7.71875 11.5156 7.71094 11.5156 7.69531 11.5234C7.51823 11.6016 7.35417 11.6875 7.20573 11.7865C7.05729 11.888 6.91927 11.9948 6.79427 12.1198C6.66927 12.2448 6.55469 12.3828 6.46094 12.5313C6.35937 12.6797 6.27604 12.8411 6.19792 13.0208C6.1276 13.1849 6.07292 13.362 6.03385 13.5495C5.99479 13.7266 5.97917 13.9219 5.97917 14.1146C5.97917 14.3073 5.99479 14.4948 6.03385 14.6797C6.07292 14.8568 6.11979 15.0208 6.18229 15.1771C6.1901 15.1849 6.1901 15.1927 6.19792 15.2083C6.27604 15.388 6.36198 15.5495 6.46094 15.6979C6.5625 15.8464 6.66927 15.9844 6.79427 16.1094C6.91927 16.2344 7.05729 16.349 7.20573 16.4427C7.35417 16.5443 7.51562 16.6276 7.69531 16.7057C7.85937 16.776 8.03646 16.8307 8.22396 16.8698C8.40104 16.9089 8.59635 16.9245 8.78906 16.9245C8.98177 16.9245 9.16927 16.9089 9.35417 16.8698C9.53385 16.8307 9.69531 16.7839 9.85156 16.7214C9.85938 16.7135 9.86719 16.7135 9.88281 16.7057C10.0599 16.6276 10.224 16.5417 10.3724 16.4427C10.5208 16.3411 10.6589 16.2344 10.7839 16.1094C10.9089 15.9844 11.0234 15.8464 11.1172 15.6979C11.2187 15.5495 11.3021 15.388 11.3802 15.2083C11.4505 15.0443 11.5052 14.8672 11.5443 14.6797C11.5833 14.5 11.599 14.3073 11.599 14.1146C11.599 13.9219 11.5833 13.7344 11.5443 13.5495C11.5052 13.3724 11.4583 13.2083 11.3958 13.0521C11.388 13.0443 11.388 13.0365 11.3802 13.0208C11.3021 12.8411 11.2161 12.6797 11.1172 12.5313C11.0156 12.3828 10.9089 12.2448 10.7839 12.1198C10.6589 11.9948 10.5208 11.8802 10.3724 11.7865C10.224 11.6849 10.0625 11.6016 9.88281 11.5234C9.71875 11.4505 9.53906 11.3984 9.35417 11.3594Z" fill="white"/>
</svg>
